<?xml version="1.0"?>
<svg width="400" height="175" xmlns="http://www.w3.org/2000/svg" xmlns:svg="http://www.w3.org/2000/svg">
 <!-- Created with SVG-edit - https://github.com/SVG-Edit/svgedit-->

 <title>Slot Configurations for 27C160</title>
 <g class="layer" display="inline">
  <title>Layer 1</title>
  <rect fill="#3f3f3f" height="25" id="svg_5" stroke="#000000" stroke-dasharray="null" stroke-linecap="null" stroke-linejoin="null" stroke-opacity="null" width="100" x="0" y="25"/>
  <text fill="#ffffff" font-family="Sans-serif" font-size="12" id="svg_3" stroke="#ff0000" stroke-dasharray="null" stroke-linecap="null" stroke-linejoin="null" stroke-opacity="null" stroke-width="0" text-anchor="middle" transform="matrix(1, 0, 0, 1, 0, 0)" x="50" xml:space="preserve" y="40.75">Slot 1 (512KiB)</text>
  <rect fill="#3f3f3f" height="25" id="svg_8" stroke="#000000" stroke-dasharray="null" stroke-linecap="null" stroke-linejoin="null" stroke-opacity="null" transform="matrix(1, 0, 0, 1, 0, 0)" width="100" x="100" y="25"/>
  <text fill="#ffffff" font-family="Sans-serif" font-size="12" id="svg_6" stroke="#ff0000" stroke-dasharray="null" stroke-linecap="null" stroke-linejoin="null" stroke-opacity="null" stroke-width="0" text-anchor="middle" transform="matrix(1, 0, 0, 1, 0, 0)" x="150" xml:space="preserve" y="40.75">Slot 2 (512KiB)</text>
  <rect fill="#3f3f3f" height="25" id="svg_10" stroke="#000000" stroke-dasharray="null" stroke-linecap="null" stroke-linejoin="null" stroke-opacity="null" transform="matrix(1, 0, 0, 1, 0, 0)" width="100" x="200" y="25"/>
  <text fill="#ffffff" font-family="Sans-serif" font-size="12" id="svg_9" stroke="#ff0000" stroke-dasharray="null" stroke-linecap="null" stroke-linejoin="null" stroke-opacity="null" stroke-width="0" text-anchor="middle" transform="matrix(1, 0, 0, 1, 0, 0)" x="250" xml:space="preserve" y="40.75">Slot 3 (512KiB)</text>
  <rect fill="#3f3f3f" height="25" id="svg_12" stroke="#000000" stroke-dasharray="null" stroke-linecap="null" stroke-linejoin="null" stroke-opacity="null" transform="matrix(1, 0, 0, 1, 0, 0)" width="100" x="300" y="25"/>
  <text fill="#ffffff" font-family="Sans-serif" font-size="12" id="svg_11" stroke="#ff0000" stroke-dasharray="null" stroke-linecap="null" stroke-linejoin="null" stroke-opacity="null" stroke-width="0" text-anchor="middle" transform="matrix(1, 0, 0, 1, 0, 0)" x="350" xml:space="preserve" y="40.75">Slot 4 (512KiB)</text>
  <rect fill="#7f7f7f" height="25" id="svg_20" stroke="#000000" stroke-dasharray="null" stroke-linecap="null" stroke-linejoin="null" stroke-opacity="null" transform="matrix(1, 0, 0, 1, 0, 0)" width="200" x="0" y="75"/>
  <rect fill="#7f7f7f" height="25" id="svg_17" stroke="#000000" stroke-dasharray="null" stroke-linecap="null" stroke-linejoin="null" stroke-opacity="null" transform="matrix(1, 0, 0, 1, 0, 0)" width="200" x="200" y="75"/>
  <rect fill="#7f7f7f" height="25" id="svg_22" stroke="#000000" stroke-dasharray="null" stroke-linecap="null" stroke-linejoin="null" stroke-opacity="null" transform="matrix(1, 0, 0, 1, 0, 0)" width="200" x="200" y="100"/>
  <rect fill="#7f7f7f" height="25" id="svg_30" stroke="#000000" stroke-dasharray="null" stroke-linecap="null" stroke-linejoin="null" stroke-opacity="null" transform="matrix(1, 0, 0, 1, 0, 0)" width="100" x="0" y="100">Image 1 (512KiB)</rect>
  <text fill="#ffffff" font-family="Sans-serif" font-size="12" id="svg_28" stroke="#ff0000" stroke-dasharray="null" stroke-linecap="null" stroke-linejoin="null" stroke-opacity="null" stroke-width="0" text-anchor="middle" transform="matrix(1, 0, 0, 1, 0, 0)" x="50" xml:space="preserve" y="115.75">Image 1 (512KiB)</text>
  <rect fill="#7f7f7f" height="25" id="svg_27" stroke="#000000" stroke-dasharray="null" stroke-linecap="null" stroke-linejoin="null" stroke-opacity="null" transform="matrix(1, 0, 0, 1, 0, 0)" width="100" x="100" y="100"/>
  <text fill="#ffffff" font-family="Sans-serif" font-size="12" id="svg_25" stroke="#ff0000" stroke-dasharray="null" stroke-linecap="null" stroke-linejoin="null" stroke-opacity="null" stroke-width="0" text-anchor="middle" transform="matrix(1, 0, 0, 1, 0, 0)" x="150" xml:space="preserve" y="115.75">Image 2 (512KiB)</text>
  <rect fill="#7f7f7f" height="25" id="svg_46" stroke="#000000" stroke-dasharray="null" stroke-linecap="null" stroke-linejoin="null" stroke-opacity="null" transform="matrix(1, 0, 0, 1, 0, 0)" width="100" x="0" y="50"/>
  <text fill="#ffffff" font-family="Sans-serif" font-size="12" id="svg_44" stroke="#ff0000" stroke-dasharray="null" stroke-linecap="null" stroke-linejoin="null" stroke-opacity="null" stroke-width="0" text-anchor="middle" transform="matrix(1, 0, 0, 1, 0, 0)" x="50" xml:space="preserve" y="65.75">Image 1 (512KiB)</text>
  <rect fill="#7f7f7f" height="25" id="svg_43" stroke="#000000" stroke-dasharray="null" stroke-linecap="null" stroke-linejoin="null" stroke-opacity="null" transform="matrix(1, 0, 0, 1, 0, 0)" width="100" x="100" y="50"/>
  <text fill="#ffffff" font-family="Sans-serif" font-size="12" id="svg_41" stroke="#ff0000" stroke-dasharray="null" stroke-linecap="null" stroke-linejoin="null" stroke-opacity="null" stroke-width="0" text-anchor="middle" transform="matrix(1, 0, 0, 1, 0, 0)" x="150" xml:space="preserve" y="65.75">Image 2 (512KiB)</text>
  <rect fill="#7f7f7f" height="25" id="svg_40" stroke="#000000" stroke-dasharray="null" stroke-linecap="null" stroke-linejoin="null" stroke-opacity="null" transform="matrix(1, 0, 0, 1, 0, 0)" width="100" x="200" y="50"/>
  <text fill="#ffffff" font-family="Sans-serif" font-size="12" id="svg_39" stroke="#ff0000" stroke-dasharray="null" stroke-linecap="null" stroke-linejoin="null" stroke-opacity="null" stroke-width="0" text-anchor="middle" transform="matrix(1, 0, 0, 1, 0, 0)" x="250" xml:space="preserve" y="65.75">Image 3 (512KiB)</text>
  <rect fill="#7f7f7f" height="25" id="svg_38" stroke="#000000" stroke-dasharray="null" stroke-linecap="null" stroke-linejoin="null" stroke-opacity="null" transform="matrix(1, 0, 0, 1, 0, 0)" width="100" x="300" y="50"/>
  <text fill="#ffffff" font-family="Sans-serif" font-size="12" id="svg_37" stroke="#ff0000" stroke-dasharray="null" stroke-linecap="null" stroke-linejoin="null" stroke-opacity="null" stroke-width="0" text-anchor="middle" transform="matrix(1, 0, 0, 1, 0, 0)" x="350" xml:space="preserve" y="65.75">Image 4 (512KiB)</text>
  <rect fill="#7f7f7f" height="25" id="svg_48" stroke="#000000" stroke-dasharray="null" stroke-linecap="null" stroke-linejoin="null" stroke-opacity="null" transform="matrix(1, 0, 0, 1, 0, 0)" width="200" x="0" y="125"/>
  <rect fill="#7f7f7f" height="25" id="svg_50" stroke="#000000" stroke-dasharray="null" stroke-linecap="null" stroke-linejoin="null" stroke-opacity="null" transform="matrix(1, 0, 0, 1, 0, 0)" width="100" x="200" y="125"/>
  <text fill="#ffffff" font-family="Sans-serif" font-size="12" id="svg_49" stroke="#ff0000" stroke-dasharray="null" stroke-linecap="null" stroke-linejoin="null" stroke-opacity="null" stroke-width="0" text-anchor="middle" transform="matrix(1, 0, 0, 1, 0, 0)" x="250" xml:space="preserve" y="140.75">Image 2 (512KiB)</text>
  <rect fill="#7f7f7f" height="25" id="svg_52" stroke="#000000" stroke-dasharray="null" stroke-linecap="null" stroke-linejoin="null" stroke-opacity="null" transform="matrix(1, 0, 0, 1, 0, 0)" width="100" x="300" y="125"/>
  <text fill="#ffffff" font-family="Sans-serif" font-size="12" id="svg_51" stroke="#ff0000" stroke-dasharray="null" stroke-linecap="null" stroke-linejoin="null" stroke-opacity="null" stroke-width="0" text-anchor="middle" transform="matrix(1, 0, 0, 1, 0, 0)" x="350" xml:space="preserve" y="140.75">Image 3 (512KiB)</text>
  <rect fill="#7f7f7f" height="25" id="svg_54" stroke="#000000" stroke-dasharray="null" stroke-linecap="null" stroke-linejoin="null" stroke-opacity="null" width="400" x="0" y="150"/>
  <line fill="none" id="svg_55" stroke="#3f3f3f" stroke-dasharray="2" stroke-linecap="null" stroke-linejoin="null" transform="matrix(1, 0, 0, 1, 0, 0)" x1="100" x2="100" y1="75" y2="100">Image 1 (1MiB)</line>
  <text fill="#ffffff" font-family="Sans-serif" font-size="12" id="svg_18" stroke="#ff0000" stroke-dasharray="null" stroke-linecap="null" stroke-linejoin="null" stroke-opacity="null" stroke-width="0" text-anchor="middle" transform="matrix(1, 0, 0, 1, 0, 0)" x="100" xml:space="preserve" y="90.75">Image 1 (1MiB)</text>
  <line fill="none" id="svg_56" stroke="#3f3f3f" stroke-dasharray="2" stroke-linecap="null" stroke-linejoin="null" x1="300" x2="300" y1="75" y2="100">Image 2 (1MiB)</line>
  <text fill="#ffffff" font-family="Sans-serif" font-size="12" id="svg_15" stroke="#ff0000" stroke-dasharray="null" stroke-linecap="null" stroke-linejoin="null" stroke-opacity="null" stroke-width="0" text-anchor="middle" transform="matrix(1, 0, 0, 1, 0, 0)" x="300" xml:space="preserve" y="90.75">Image 2 (1MiB)</text>
  <line fill="none" id="svg_57" stroke="#3f3f3f" stroke-dasharray="2" stroke-linecap="null" stroke-linejoin="null" x1="300" x2="300" y1="100" y2="125">Image 3 (1MiB)</line>
  <text fill="#ffffff" font-family="Sans-serif" font-size="12" id="svg_21" stroke="#ff0000" stroke-dasharray="null" stroke-linecap="null" stroke-linejoin="null" stroke-opacity="null" stroke-width="0" text-anchor="middle" transform="matrix(1, 0, 0, 1, 0, 0)" x="300" xml:space="preserve" y="115.75">Image 3 (1MiB)</text>
  <line fill="none" id="svg_58" stroke="#3f3f3f" stroke-dasharray="2" stroke-linecap="null" stroke-linejoin="null" transform="matrix(1, 0, 0, 1, 0, 0)" x1="100" x2="100" y1="125" y2="150">Image 1 (1MiB)</line>
  <text fill="#ffffff" font-family="Sans-serif" font-size="12" id="svg_47" stroke="#ff0000" stroke-dasharray="null" stroke-linecap="null" stroke-linejoin="null" stroke-opacity="null" stroke-width="0" text-anchor="middle" transform="matrix(1, 0, 0, 1, 0, 0)" x="100" xml:space="preserve" y="140.75">Image 1 (1MiB)</text>
  <line fill="none" id="svg_59" stroke="#3f3f3f" stroke-dasharray="2" stroke-linecap="null" stroke-linejoin="null" transform="matrix(1, 0, 0, 1, 0, 0)" x1="100" x2="100" y1="150" y2="175">Image 1 (1MiB)</line>
  <line fill="none" id="svg_60" stroke="#3f3f3f" stroke-dasharray="2" stroke-linecap="null" stroke-linejoin="null" transform="matrix(1, 0, 0, 1, 0, 0)" x1="200" x2="200" y1="150" y2="175">Image 1 (1MiB)Image 1 (1MiB)</line>
  <line fill="none" id="svg_61" stroke="#3f3f3f" stroke-dasharray="2" stroke-linecap="null" stroke-linejoin="null" transform="matrix(1, 0, 0, 1, 0, 0)" x1="300" x2="300" y1="150" y2="175">Image 1 (2MiB)</line>
  <text fill="#ffffff" font-family="Sans-serif" font-size="12" id="svg_53" stroke="#ff0000" stroke-dasharray="null" stroke-linecap="null" stroke-linejoin="null" stroke-opacity="null" stroke-width="0" text-anchor="middle" x="200" xml:space="preserve" y="165.75">Image 1 (2MiB)</text>
  <rect fill="#3f3f3f" height="25" id="svg_62" stroke="#000000" stroke-dasharray="null" stroke-linecap="null" stroke-linejoin="null" stroke-opacity="null" transform="matrix(1, 0, 0, 1, 0, 0)" width="400" x="0" y="0"/>
  <text fill="#ffffff" font-family="Sans-serif" font-size="12" id="svg_63" stroke="#ff0000" stroke-dasharray="null" stroke-linecap="null" stroke-linejoin="null" stroke-opacity="null" stroke-width="0" text-anchor="middle" transform="matrix(1, 0, 0, 1, 0, 0)" x="200" xml:space="preserve" y="15.62">27C160 (2MiB)</text>
 </g>
</svg>